{
	"asset":{
		"generator":"Khronos glTF Blender I/O v4.1.63",
		"version":"2.0"
	},
	"scene":0,
	"scenes":[
		{
			"name":"Scene",
			"nodes":[
				0,
				1
			]
		}
	],
	"nodes":[
		{
			"mesh":0,
			"name":"Can"
		},
		{
			"mesh":1,
			"name":"Tab",
			"translation":[
				0,
				0.00023168325424194336,
				0
			]
		}
	],
	"materials":[
		{
			"doubleSided":true,
			"name":"top of can",
			"pbrMetallicRoughness":{
				"baseColorFactor":[
					0.800000011920929,
					0.800000011920929,
					0.800000011920929,
					1
				],
				"roughnessFactor":0.30000001192092896
			}
		},
		{
			"doubleSided":true,
			"name":"Image",
			"pbrMetallicRoughness":{
				"baseColorTexture":{
					"index":0
				},
				"metallicFactor":0.699999988079071,
				"roughnessFactor":0.15000000596046448
			}
		}
	],
	"meshes":[
		{
			"name":"Circle",
			"primitives":[
				{
					"attributes":{
						"POSITION":0,
						"NORMAL":1,
						"TEXCOORD_0":2
					},
					"indices":3,
					"material":0
				},
				{
					"attributes":{
						"POSITION":4,
						"NORMAL":5,
						"TEXCOORD_0":6
					},
					"indices":7,
					"material":1
				}
			]
		},
		{
			"name":"Circle.001",
			"primitives":[
				{
					"attributes":{
						"POSITION":8,
						"NORMAL":9,
						"TEXCOORD_0":10
					},
					"indices":11,
					"material":0
				}
			]
		}
	],
	"textures":[
		{
			"sampler":0,
			"source":0
		}
	],
	"images":[
		{
			"mimeType":"image/jpeg",
			"name":"Image result for coke label",
			"uri":"Image%20result%20for%20coke%20label.jpg"
		}
	],
	"accessors":[
		{
			"bufferView":0,
			"componentType":5126,
			"count":1063,
			"max":[
				1.6832672357559204,
				0.23929449915885925,
				2.4595370292663574
			],
			"min":[
				-3.219005584716797,
				-10.089591026306152,
				-2.4595370292663574
			],
			"type":"VEC3"
		},
		{
			"bufferView":1,
			"componentType":5126,
			"count":1063,
			"type":"VEC3"
		},
		{
			"bufferView":2,
			"componentType":5126,
			"count":1063,
			"type":"VEC2"
		},
		{
			"bufferView":3,
			"componentType":5123,
			"count":6138,
			"type":"SCALAR"
		},
		{
			"bufferView":4,
			"componentType":5126,
			"count":312,
			"max":[
				1.9436557292938232,
				0.11339765787124634,
				2.720818042755127
			],
			"min":[
				-3.4793941974639893,
				-10.089591026306152,
				-2.720818042755127
			],
			"type":"VEC3"
		},
		{
			"bufferView":5,
			"componentType":5126,
			"count":312,
			"type":"VEC3"
		},
		{
			"bufferView":6,
			"componentType":5126,
			"count":312,
			"type":"VEC2"
		},
		{
			"bufferView":7,
			"componentType":5123,
			"count":1596,
			"type":"SCALAR"
		},
		{
			"bufferView":8,
			"componentType":5126,
			"count":582,
			"max":[
				0.0009276866912841797,
				0.2762039601802826,
				0.6405510306358337
			],
			"min":[
				-2.37488055229187,
				6.427448795420787e-08,
				-0.6405510306358337
			],
			"type":"VEC3"
		},
		{
			"bufferView":9,
			"componentType":5126,
			"count":582,
			"type":"VEC3"
		},
		{
			"bufferView":10,
			"componentType":5126,
			"count":582,
			"type":"VEC2"
		},
		{
			"bufferView":11,
			"componentType":5123,
			"count":3504,
			"type":"SCALAR"
		}
	],
	"bufferViews":[
		{
			"buffer":0,
			"byteLength":12756,
			"byteOffset":0,
			"target":34962
		},
		{
			"buffer":0,
			"byteLength":12756,
			"byteOffset":12756,
			"target":34962
		},
		{
			"buffer":0,
			"byteLength":8504,
			"byteOffset":25512,
			"target":34962
		},
		{
			"buffer":0,
			"byteLength":12276,
			"byteOffset":34016,
			"target":34963
		},
		{
			"buffer":0,
			"byteLength":3744,
			"byteOffset":46292,
			"target":34962
		},
		{
			"buffer":0,
			"byteLength":3744,
			"byteOffset":50036,
			"target":34962
		},
		{
			"buffer":0,
			"byteLength":2496,
			"byteOffset":53780,
			"target":34962
		},
		{
			"buffer":0,
			"byteLength":3192,
			"byteOffset":56276,
			"target":34963
		},
		{
			"buffer":0,
			"byteLength":6984,
			"byteOffset":59468,
			"target":34962
		},
		{
			"buffer":0,
			"byteLength":6984,
			"byteOffset":66452,
			"target":34962
		},
		{
			"buffer":0,
			"byteLength":4656,
			"byteOffset":73436,
			"target":34962
		},
		{
			"buffer":0,
			"byteLength":7008,
			"byteOffset":78092,
			"target":34963
		}
	],
	"samplers":[
		{
			"magFilter":9729,
			"minFilter":9987,
			"wrapS":33071,
			"wrapT":33071
		}
	],
	"buffers":[
		{
			"byteLength":85100,
			"uri":"cokecan.bin"
		}
	]
}
